<svg id="Layer_1" data-name="Layer 1" xmlns="http://www.w3.org/2000/svg" viewBox="0 0 400.18 72"><defs><style>.cls-1{fill:#000;}</style></defs><title>rr_logo</title><path class="cls-1" d="M438.29,89.27a3.81,3.81,0,0,1-3.81,3.81H409.33a3.81,3.81,0,0,1-3.81-3.81V58.8A3.81,3.81,0,0,1,409.33,55h25.15a3.81,3.81,0,0,1,0,7.63H413.14v7.16h14a3.81,3.81,0,0,1,0,7.63h-14v8.06h21.33A3.81,3.81,0,0,1,438.29,89.27Zm-55.34-11.8V70.59c0-3.36.56-5.61,1.66-6.69s3-1.49,6-1.49h2.22a3.81,3.81,0,0,0,0-7.63h-2.22c-10.43,0-15.29,5-15.29,15.81v6.89c0,7-1.91,8.18-7.66,8.18h-1.73a3.81,3.81,0,0,0,0,7.63h1.73C378.09,93.29,382.95,88.26,382.95,77.48ZM357.17,74a19.26,19.26,0,1,0-19.26,19.25A19.28,19.28,0,0,0,357.17,74Zm-7.63,0A11.63,11.63,0,1,1,337.92,62.4,11.64,11.64,0,0,1,349.54,74Zm-18.28,32.55a3.83,3.83,0,0,1-3.81,3.52h-.31c-14.46-1.15-29.34-11.45-40.2-27.72H271v23.9a3.83,3.83,0,0,1-7.65,0V41.93a3.82,3.82,0,0,1,3.83-3.83h19.7a22.13,22.13,0,0,1,8.31,42.64c13.55,18.73,28.21,21.37,32.62,21.73A3.82,3.82,0,0,1,331.26,106.58ZM271,74.72h15.87a14.48,14.48,0,1,0,0-29H271ZM247.16,61.31l-14.5,14.49V89.58a3.83,3.83,0,1,1-7.65,0V75.79L210.54,61.31a3.83,3.83,0,0,1,5.41-5.41l12.91,12.91,12.9-12.9a3.83,3.83,0,1,1,5.41,5.41ZM197,85.55h-21.4V77.47h14.06a3.83,3.83,0,0,0,0-7.65H175.63V62.63H197A3.83,3.83,0,0,0,197,55H171.81A3.82,3.82,0,0,0,168,58.81V89.38a3.82,3.82,0,0,0,3.82,3.83H197a3.83,3.83,0,0,0,0-7.65Zm-38,3.82a3.82,3.82,0,0,0-3.83-3.82H133.79v-27a3.83,3.83,0,0,0-7.65,0V89.38A3.82,3.82,0,0,0,130,93.2h25.25A3.82,3.82,0,0,0,159,89.38Zm-50.11.2v-31a3.83,3.83,0,0,0-7.65,0v31a3.83,3.83,0,1,0,7.65,0Zm-2.87,17a3.83,3.83,0,0,1-3.81,3.52h-.31c-14.46-1.15-29.34-11.45-40.2-27.72h-16v23.9a3.83,3.83,0,0,1-7.65,0V41.93a3.82,3.82,0,0,1,3.82-3.83h19.7a22.13,22.13,0,0,1,8.31,42.64c13.55,18.73,28.21,21.37,32.62,21.73A3.82,3.82,0,0,1,106.06,106.58ZM45.75,74.72H61.62a14.48,14.48,0,1,0,0-29H45.75Z" transform="translate(-38.1 -38.1)"/></svg>