<svg id="Layer_1" data-name="Layer 1" xmlns="http://www.w3.org/2000/svg" viewBox="0 0 309.05 311"><defs><style>.cls-1{fill:#fff;stroke:#B1B4B6;stroke-miterlimit:10;stroke-width:9px;}.cls-2{fill:#B1B4B6;}</style></defs><title>scroll</title><path class="cls-1" d="M387.88,385c5.22-9.67,3.28-22-4-34.13a5.9,5.9,0,0,1,2.12-8.18c12.26-7,19.93-16.85,20.07-27.82s-7.29-21-19.4-28.37a5.9,5.9,0,0,1-1.91-8.23c7.61-11.91,9.85-24.17,4.9-34S373.4,229,359.27,228.12a5.9,5.9,0,0,1-5.51-6.41c1.23-14.08-2.47-26-11.39-32.36-9.34-6.68-22.55-6-36.11.53a5.89,5.89,0,0,1-8-3.09c-5.65-13.9-14.94-23.28-26.32-24.63-10.91-1.29-21.68,5-30.25,16.32a5.9,5.9,0,0,1-8.38,1c-11-8.82-23-12.33-33.26-8.42s-16.87,14.52-19.24,28.48a5.9,5.9,0,0,1-6.95,4.81c-13.87-2.7-26.1-.27-33.37,7.94s-8.23,20.68-3.86,34.16a5.9,5.9,0,0,1-3.93,7.48c-13.54,4-23.25,11.85-25.89,22.5s2.29,22.14,12.41,32.06a5.9,5.9,0,0,1,0,8.45c-10.13,9.85-15.11,21.28-12.52,31.94s12.29,18.56,25.85,22.66a5.9,5.9,0,0,1,3.9,7.5c-4.41,13.43-3.53,25.86,3.7,34.11s19.49,10.75,33.4,8.11a5.9,5.9,0,0,1,6.93,4.84c2.31,13.94,8.85,24.55,19.08,28.51s22.25.5,33.36-8.29a5.9,5.9,0,0,1,8.38,1.08c8.51,11.29,19.22,17.66,30.12,16.43S291.31,454,297.08,441a5.9,5.9,0,0,1,7.93-2.93c12.77,6.06,25.21,6.75,34.3.6s13.11-18,12.23-32.12a5.9,5.9,0,0,1,5.67-6.27C371.33,399.78,382.67,394.63,387.88,385Z" transform="translate(-101.48 -157.5)"/><path class="cls-2" d="M289,286.31A2.61,2.61,0,0,1,286.5,288H267.09v86.12a2.67,2.67,0,0,1-2.77,2.77H247.68a2.67,2.67,0,0,1-2.77-2.77V288H225.5a2.51,2.51,0,0,1-2.51-1.65,2.78,2.78,0,0,1,.43-3L253.75,250a2.74,2.74,0,0,1,2-.87,2.84,2.84,0,0,1,2.08.87l30.76,33.27A2.78,2.78,0,0,1,289,286.31Z" transform="translate(-101.48 -157.5)"/></svg>